<svg xmlns="http://www.w3.org/2000/svg" xmlns:xlink="http://www.w3.org/1999/xlink" width="20" height="28" viewBox="0 0 20 28">
    <defs>
        <path id="a" d="M0 0h36v36H0z"/>
        <path id="c" d="M0 0h19.23v28H0z"/>
    </defs>
    <g fill="none" fill-rule="evenodd" transform="translate(-9 -4)">
        <mask id="b" fill="#fff">
            <use xlink:href="#a"/>
        </mask>
        <g mask="url(#b)">
            <g transform="translate(9.093 4)">
                <mask id="d" fill="#fff">
                    <use xlink:href="#c"/>
                </mask>
                <path fill="#1B0702" d="M14.607 10.172c.377.236.755.47 1.128.71.063.041.714.134.796.083.258-.162.392-.194.6.151.185.306.603.5.953.675.368.183.774.286.625.83.28.254.323.556.185.895-.008.02.002.063.016.07.256.114.27.286.171.527-.08.198-.038.452-.324.53-.1.028-.05.116-.043.188.009.084.016.237-.01.244-.358.097-.176.369-.189.566-.028.42-.224.674-.653.793-.105.03-.167.118-.14.187.21.537-.226.793-.49 1.116-.09.113-.24.167-.176.362.034.104-.076.179-.163.225-.134.07-.228.18-.24.314-.039.427-.426.643-.593.996-.144.304-.377.581-.703.747-.064.033-.137.076-.14.162-.017.442-.351.664-.665.869-.359.235-.623.564-.92.852-.425.411-.96.72-1.252 1.264-.048.088-.184.198-.266.188-.629-.077-.784.458-1.095.794-.039.041-.108.054-.163.08-.18.03-.349.072-.38.29-.869.196-1.378.97-2.18 1.313-.55.236-1.097.564-1.607.913-.246.168-.471.307-.812.266-.187-.023-.254-.09-.342-.204-.061-.08-.139-.154-.253-.117-.147.048-.087.15-.05.242.02.049.02.093-.018.135-.14.159-.96.194-1.168.038-.034.244-.18.38-.42.38-.328-.002-.64.069-.958.137-.294.062-.391-.046-.295-.322.035-.1.063-.2-.074-.16-.346.1-.22-.04-.116-.19.138-.2.15-.385-.057-.555-.132-.11-.193-.222-.004-.354.148-.103.145-.253.11-.43-.077-.387.158-.686.558-.76.035-.007.104.013.105.009.091-.394.564-.523.66-.882.075-.282.21-.31.425-.246.187.056.37.057.556.034.107-.013 1.036-.788 1.06-.896.036-.172.145-.215.3-.206.09.201.22.33.473.27-.052-.186-.228-.229-.325-.346.183-.096.436-.14.557-.243.293-.25.863-.15.914-.706.017-.182.176-.268.364-.235.316.056.538-.092.7-.327.128-.185.277-.305.531-.295-.05-.194-.313-.41.178-.41.247 0 .81-.031.759-.601-.004-.036.054-.11.084-.11.296-.004.349-.297.515-.412a2.18 2.18 0 0 0 .764-.876c.05-.104.161-.234.285-.221.381.04.407-.238.54-.48.26-.473.612-.89 1.036-1.236.058-.047.112-.079.147-.152.228-.47.466-.937.696-1.407.089-.182.178-.347.407-.397.142-.032.242-.14.23-.299-.011-.156-.155-.174-.27-.215-.878-.315-1.756-.633-2.636-.944-.132-.047-.238-.125-.354-.193-.249-.147-.494-.282-.811-.31-.567-.052-1.009-.382-1.384-.795-.086-.094-.138-.262-.321-.168-.371.189-.608-.06-.851-.26-.488-.402-1.057-.686-1.558-1.06-.456-.34-1.056-.477-1.421-.914C4.617 9.05 3.84 8.667 3.393 7.99c-.212-.322-.585-.486-.72-.89-.069-.203-.436-.297-.604-.52-.152-.202-.427-.345-.265-.676.026-.053-.045-.151-.16-.162-.527-.05-.835-.37-.834-.901 0-.143.044-.243-.154-.215-.001-.387-.405-.492-.553-.774-.063-.12-.07-.263-.167-.37-.027-.031-.031-.132-.028-.133.296-.079.161-.408.342-.565.232-.202-.036-.397-.095-.562-.088-.243-.08-.35.182-.362.237-.012.293-.157.298-.346.008-.255.095-.451.35-.559.205-.085.26-.316.42-.458C1.704.23 2.143.298 2.428.02c.052-.051.146.001.2.056.15.15.3.298.506.377.032.012.079.043.082.07.075.628.5 1.133.623 1.742.039.19.13.346.24.493.11.148.226.265.2.489-.02.176.169.318.33.362.463.129.706.445.84.87.033.106.082.18.194.194.099.012.154.059.188.152.13.35.442.507.725.718.347.26.722.519.953.906.124.205.26.354.534.309.218-.036.351.093.436.278.097.214.26.357.473.454.2.091.478.077.516.397.009.077.152.06.238.056.122-.004.244.017.278.14.14.509.575.393.924.418.16.011.284.043.212.186-.12.24-.004.23.16.195.28-.058.372.21.55.32.186.113.336.187.55.11.197-.069.362-.052.441.194.075.234.271.262.495.354.354.145.775.034 1.072.31-.058.15-.266.212-.279.419.296-.024.405-.213.498-.418" mask="url(#d)"/>
            </g>
        </g>
    </g>
</svg>
