<svg xmlns="http://www.w3.org/2000/svg" width="24" height="25" viewBox="0 0 24 25">
    <g fill="none" fill-rule="nonzero">
        <path fill="#1B0702" d="M22.285.353H1.3C.583.353 0 .946 0 1.677v21.352c0 .73.583 1.324 1.301 1.324h11.305V15.07h-3.07v-3.633h3.07V8.765c0-3.1 1.863-4.787 4.58-4.787.915-.002 1.83.045 2.74.14v3.24h-1.87c-1.48 0-1.77.712-1.77 1.763v2.313h3.539l-.46 3.633h-3.099v9.286h6.019c.719 0 1.301-.593 1.301-1.324V1.677c0-.731-.582-1.324-1.301-1.324z"/>
        <path fill="#FFF" d="M16.266 24.353V15.07h3.079l.46-3.633h-3.539V9.125c0-1.05.29-1.763 1.77-1.763h1.89V4.118a25.68 25.68 0 0 0-2.745-.14c-2.72 0-4.575 1.688-4.575 4.787v2.673h-3.07v3.633h3.07v9.282h3.66z"/>
    </g>
</svg>
