<svg xmlns="http://www.w3.org/2000/svg" xmlns:xlink="http://www.w3.org/1999/xlink" width="628" height="475" viewBox="0 0 628 475">
    <defs>
        <path id="a" d="M0 0h702v488H0z"/>
    </defs>
    <g fill="none" fill-rule="evenodd" transform="translate(-56 -2)">
        <mask id="b" fill="#fff">
            <use xlink:href="#a"/>
        </mask>
        <path fill="#F8EBE6" d="M79.962 143.19c-36.057 46.485-35.085 173.144 84.204 191.112 21.552 91.642 83.378 147.791 156.427 145.996 48.699-1.197 97.09-22.909 145.172-65.136 152.3 2.994 224.324-56.527 216.071-178.564-8.252-122.038-74.65-170.703-199.19-145.996C440.173 35.534 393.803 8 343.536 8c-50.266 0-90.55 18.924-120.85 56.772C151.573 86.06 104 112.199 79.961 143.189z" mask="url(#b)" transform="scale(1 -1) rotate(-6 -4288.206 0)"/>
    </g>
</svg>
