<svg xmlns="http://www.w3.org/2000/svg" width="508" height="540" viewBox="0 0 508 540">
    <g fill="none" fill-rule="evenodd">
        <path fill="#F8EBE6" d="M0 0h508v540H0z"/>
        <g opacity=".5">
            <path d="M236 252h36v36h-36z"/>
            <path fill="#F4927A" d="M259.25 268.5a2.25 2.25 0 1 1 0-4.5 2.25 2.25 0 0 1 0 4.5zm-10.5 0a2.25 2.25 0 1 1 0-4.5 2.25 2.25 0 0 1 0 4.5zM254 276c2.22 0 4.125-1.215 5.175-3h2.505a8.243 8.243 0 0 1-15.36 0h2.505c1.05 1.785 2.955 3 5.175 3zm-.015-21c8.295 0 15.015 6.72 15.015 15 0 8.28-6.72 15-15.015 15-8.28 0-14.985-6.72-14.985-15 0-8.28 6.705-15 14.985-15zm.015 27c6.63 0 12-5.37 12-12s-5.37-12-12-12-12 5.37-12 12 5.37 12 12 12z"/>
        </g>
    </g>
</svg>
