<svg xmlns="http://www.w3.org/2000/svg" width="152" height="19" viewBox="0 0 152 19">
    <g fill="none" fill-rule="evenodd">
        <path d="M-2-2h24v24H-2z"/>
        <path fill="#F4927A" d="M10 15.27L16.18 19l-1.64-7.03L20 7.24l-7.19-.61L10 0 7.19 6.63 0 7.24l5.46 4.73L3.82 19z"/>
        <path d="M64-2h24v24H64z"/>
        <path fill="#F4927A" d="M76 15.27L82.18 19l-1.64-7.03L86 7.24l-7.19-.61L76 0l-2.81 6.63-7.19.61 5.46 4.73L69.82 19z"/>
        <path d="M31-2h24v24H31z"/>
        <path fill="#F4927A" d="M43 15.27L49.18 19l-1.64-7.03L53 7.24l-7.19-.61L43 0l-2.81 6.63-7.19.61 5.46 4.73L36.82 19z"/>
        <g>
            <path d="M97-2h24v24H97z"/>
            <path fill="#F4927A" d="M109 15.27l6.18 3.73-1.64-7.03L119 7.24l-7.19-.61L109 0l-2.81 6.63-7.19.61 5.46 4.73-1.64 7.03z"/>
        </g>
        <g>
            <path d="M130-2h24v24h-24z"/>
            <path fill="#F4927A" d="M142 15.27l6.18 3.73-1.64-7.03L152 7.24l-7.19-.61L142 0l-2.81 6.63-7.19.61 5.46 4.73-1.64 7.03z"/>
        </g>
    </g>
</svg>
