<svg xmlns="http://www.w3.org/2000/svg" xmlns:xlink="http://www.w3.org/1999/xlink" width="347" height="260" viewBox="0 0 347 260">
    <defs>
        <path id="a" d="M0 .198h347v259.019H0z"/>
    </defs>
    <g fill="none" fill-rule="evenodd">
        <mask id="b" fill="#fff">
            <use xlink:href="#a"/>
        </mask>
        <path fill="#FFC8BA" d="M14.779-17.14l106.778 9.063 221.886 31.25 6.082 1.57 3.931 2.33-1.935 27.84-9.795 12.694-2.758 18.432 8.326 9.43-3.918 34.253-12.025 9.446-2.135 24.642 8.236 9.281-3.521 26.933-15.125 12.08.067 25.202 9.36 7.887-4.241 30.8-90.934-6.835-243.715-41.145 2.034-37.415 8.005-4.415 1.744-23.158-5.985-5.127 1.906-26.996 8.602-4.375 3.357-34.692L1.86 88.53l5.727-39.909 9.727-6.128.078-23.882-6.265-5.307z" mask="url(#b)" transform="scale(-1 1) rotate(-8 0 2580.533)"/>
    </g>
</svg>
