<svg xmlns="http://www.w3.org/2000/svg" xmlns:xlink="http://www.w3.org/1999/xlink" width="107" height="139" viewBox="0 0 107 139">
    <defs>
        <path id="a" d="M-38 38H96v58H-38z"/>
    </defs>
    <g fill="none" fill-rule="evenodd" transform="rotate(25 36.99 124.384)">
        <mask id="b" fill="#fff">
            <use xlink:href="#a"/>
        </mask>
        <path fill="#FFDFA5" d="M79.03 76.278a32.178 32.178 0 0 1-.127-.017c-.16.595-.32 1.19-.493 1.84l.933.056-.313-1.879zm-93.615-9.319l-.469-1.813-.132.004-.351 1.81h.952zM76.79 90.941v2.426l.127.019.83-2.33-.957-.115zm-91.418-46.924c-.081.12-.12.151-.124.186-.059.499-.108.999-.171 1.497-.087.684.212 1.108.984 1.31l-.689-2.993zm95.662 12.587l-.145-.01c-.103.539-.22 1.075-.304 1.616-.11.698.102 1.033.894 1.399l-.445-3.005zm-97.018 26.744l.124.006.71-2.58h-1.09l.256 2.574zm94.009-2.024l.3 2.153.134.014.99-1.92-1.424-.247zm-93.707-10.901l.518 2.256.127-.014.856-2.087-1.501-.155zm.551-19.771l.261 2.934.11.002.865-3.099-1.236.163zm93.106 35.541l-.133-.002c-.18.822-.364 1.642-.53 2.466-.014.075.094.247.15.25.37.011.743-.01 1.158-.023l-.645-2.691zm2.095-20.504l.097.017c.332-.893.666-1.784.993-2.679.02-.055-.014-.19-.029-.19-.296-.018-.598-.054-.887-.009-.09.014-.201.253-.206.391-.025.732-.02 1.464-.02 2.196 0 .09.034.182.052.274zm-94.519 12.688l-.858-2.658-.14.008-.371 2.814 1.37-.164zM79.37 72.76c.082-.155.114-.2.13-.248.3-.922.6-1.844.892-2.768.25-.79.246-.791-.613-.836-.043-.002-.088.001-.13-.009-.39-.092-.516.079-.494.451.041.684.052 1.37.09 2.054.023.415.075.829.125 1.356zm-94.91-15.63l.5 3.792.138.004.866-3.796h-1.503zm1.887-18.727c.14-.306.332-.41.67-.403 4.1.08 8.198.194 12.297.203 4.214.009 30.048-.358 33.271.094 2.464.345 45.297 2.587 47.266 3.163.52.152.834.375.902.926.03.245.15.48.26.814.242-.305.44-.524.603-.767.171-.257.368-.313.66-.221 2.508.786 12.939 3.947 13.355 3.994.325.037.393.18.363.486-.155 1.572-.276 7.932-.417 9.506-.224 2.517-.483 1.76-.697 4.278-.025.296-.138.458-.413.578-.755.328-1.503.674-2.24 1.04-.18.089-4.096 2.19-4.096 9.346 0 7.156 3.449 9.374 3.75 9.416.372.052.738.146 1.109.205.292.046.42.166.39.488-.296 3.175-.405 10.845-.68 14.022-.03.33-.136.434-.473.429-4.62-.068-9.24-.124-13.86-.176-.332-.004-.58-.103-.785-.367-.202-.26-.439-.492-.727-.811-.152.241-.307.426-.393.639-.155.387-.425.466-.819.455-3.706-.107-7.413-.19-11.12-.293-3.301-.093-6.602-.188-9.902-.312-2.922-.11-5.843-.253-8.763-.398-2.589-.13-5.176-.285-7.764-.422-1.864-.098-3.732-.142-5.592-.282-3.087-.233-6.173-.49-9.253-.799-2.878-.288-5.75-.65-8.624-.99-2.456-.29-4.91-.6-7.365-.892-2.845-.338-5.69-.662-8.535-.999-3.35-.396-6.697-.799-10.046-1.198-1.25-.148-2.5-.304-3.753-.433-.286-.03-.446-.132-.546-.394-.13-.342-.29-.674-.479-1.104-.236.297-.44.498-.578.736-.273.474-.694.555-1.18.5-1.94-.22-3.881-.446-5.823-.669-3.825-.44-7.651-.87-11.474-1.33-.475-.057-2.095-.13-2.498-.276-.5-.183-.325-1.241-.288-1.703.133-1.646.317-8.524.417-10.317.024-.42.166-.626.593-.743.892-.242 1.768-.54 2.642-.843.19-.065.386-.209.506-.37.87-1.165 1.772-2.313 2.554-3.535.291-.454.317-1.087.417-1.647.328-1.838-.246-8.655-.83-9.92-.082-.18-.304-.342-.5-.416a123.65 123.65 0 0 0-3.422-1.238c-.295-.103-.402-.24-.382-.562.123-1.992.203-3.988.34-5.98.11-1.604.191-7.821.324-9.424.021-.261.13-.372.38-.385 9.696-.508 13.549-.508 19.345-.789.46-.022.622-.07.77.336.105.29.28.557.486.952.258-.472.477-.824.647-1.198z" mask="url(#b)" transform="rotate(90 29 67)"/>
    </g>
</svg>
