<svg xmlns="http://www.w3.org/2000/svg" xmlns:xlink="http://www.w3.org/1999/xlink" width="313" height="250" viewBox="0 0 313 250">
    <defs>
        <path id="a" d="M0 0h322v256H0z"/>
        <path id="c" d="M0 0h357v154H0z"/>
    </defs>
    <g fill="none" fill-rule="evenodd" transform="translate(-9 -6)">
        <mask id="b" fill="#fff">
            <use xlink:href="#a"/>
        </mask>
        <g mask="url(#b)">
            <path fill="#FFC8BA" d="M222 291.84c-1.091-43.791-2.187-71.393-3.287-82.804l-2.765-35.897-3.421-27.264-20.215-131.006-1.375-5.389L188.88 6l-17.724 1.782-6.354 8.59-16.328 2.488-8.333-7.36-19.946 3.37-8.514 9.806-12.251 1.465-8.2-7.28-22.708 3L57.67 34.42H41.13l-6.962-8.28L9 30.496l16.783 161.032 6.77 49.578L45.222 311l25.243-2.414 3.928-7.108 20.511-1.6 4.527 5.293 22.76-1.567 3.893-7.639 21.397-.815 2.91 6.328 25.202-3.232 5.449-8.639h16.239l4.685 5.543L222 291.84z"/>
            <g transform="rotate(90 147.5 206)">
                <mask id="d" fill="#fff">
                    <use xlink:href="#c"/>
                </mask>
                <path fill="#B2CEC9" d="M311.857 100.845l-.338-.046-1.31 4.884 2.482.15-.834-4.988zM62.915 76.103l-1.246-4.814-.35.008-.936 4.806h2.532zm242.99 63.673v6.443l.337.049c.72-2.022 1.443-4.042 2.208-6.186l-2.545-.306zM62.805 15.188c-.216.319-.318.401-.33.494-.157 1.324-.287 2.651-.455 3.974-.23 1.817.563 2.943 2.617 3.476l-1.833-7.944zM317.19 48.61l-.386-.026c-.273 1.43-.584 2.852-.808 4.288-.29 1.855.271 2.744 2.377 3.714l-1.183-7.976zM59.198 119.616l.33.017 1.889-6.85h-2.899l.68 6.833zm249.989-5.374l.8 5.718.355.037 2.634-5.096-3.789-.66zM60.001 85.298l1.377 5.991.339-.037 2.277-5.54L60 85.298zm1.467-52.494l.693 7.79.29.006c.75-2.676 1.5-5.352 2.304-8.227l-3.287.431zm247.587 94.367l-.352-.005c-.478 2.181-.97 4.36-1.41 6.548-.039.197.25.655.396.66.988.032 1.978-.026 3.08-.057l-1.714-7.146zm5.571-54.443l.257.047c.884-2.37 1.772-4.738 2.64-7.113.055-.147-.036-.502-.076-.505-.787-.047-1.59-.143-2.359-.023-.24.037-.534.67-.546 1.039-.066 1.94-.055 3.885-.056 5.828 0 .242.091.485.14.727zm-251.345 33.69l-2.283-7.056-.37.02c-.321 2.43-.644 4.862-.99 7.47l3.643-.433zm249.481-14.913c.219-.413.304-.53.346-.66.795-2.448 1.595-4.895 2.373-7.349.664-2.097.652-2.1-1.631-2.218-.115-.007-.234.002-.344-.024-1.04-.245-1.373.207-1.314 1.197.108 1.815.136 3.636.238 5.452.062 1.103.2 2.202.332 3.602zM60.378 50.004l1.33 10.069.366.01 2.301-10.08h-3.997zM65.395.282c.37-.813.883-1.087 1.783-1.071 10.899.214 21.797.517 32.697.54 11.207.023 79.904-.95 88.476.249 6.553.917 43.375 13.786 46.182 14.702 9.891 3.23 19.765 6.514 29.673 9.696 11.386 3.656 22.797 7.235 34.202 10.827 5.205 1.639 10.411 3.279 15.65 4.809 1.38.403 2.217.997 2.397 2.459.08.65.398 1.273.691 2.16.644-.808 1.173-1.39 1.603-2.036.456-.682.98-.83 1.758-.587 6.669 2.088 13.346 4.147 20.019 6.224 4.067 1.265 8.12 2.575 12.2 3.802 1.06.319 2.186.455 3.292.58.864.098 1.045.48.965 1.29-.41 4.173-.766 8.351-1.14 12.528-.596 6.685-1.202 13.368-1.77 20.054-.067.786-.367 1.217-1.1 1.535-2.008.87-3.996 1.791-5.956 2.762a2.978 2.978 0 0 0-1.203 1.135 280.287 280.287 0 0 0-4.334 7.945c-.266.509-.4 1.16-.37 1.735.189 3.581.26 7.182.735 10.73.305 2.275 1.226 4.471 1.886 6.698.455 1.535.969 3.054 1.391 4.597.206.753.581 1.174 1.382 1.287.99.138 1.963.388 2.95.544.776.123 1.117.44 1.037 1.295a3893.85 3893.85 0 0 0-2.284 25.3c-.076.875-.36 1.15-1.256 1.14-12.286-.181-24.572-.332-36.858-.469-.88-.01-1.541-.274-2.086-.974-.537-.69-1.167-1.308-1.933-2.154-.403.64-.817 1.131-1.044 1.696-.414 1.028-1.13 1.24-2.178 1.21-9.856-.284-19.715-.503-29.572-.78-8.778-.245-17.555-.497-26.33-.827-7.77-.293-15.538-.672-23.305-1.058-6.882-.342-13.761-.757-20.643-1.118-4.957-.26-9.924-.379-14.872-.751-8.21-.617-16.415-1.3-24.604-2.12-7.656-.764-15.292-1.728-22.933-2.63-6.532-.77-13.056-1.592-19.587-2.368-7.564-.897-15.132-1.758-22.696-2.652-8.906-1.05-17.81-2.12-26.714-3.18-3.326-.395-6.65-.808-9.98-1.15-.76-.079-1.186-.352-1.451-1.046-.347-.91-.773-1.79-1.274-2.932-.63.787-1.171 1.322-1.538 1.955-.727 1.259-1.846 1.473-3.135 1.327-5.163-.587-10.324-1.183-15.486-1.776-10.173-1.168-20.347-2.312-30.513-3.532-1.262-.152-5.571-.343-6.643-.733-1.33-.486-.865-3.295-.766-4.522.354-4.37.843-22.633 1.11-27.392.063-1.118.44-1.664 1.575-1.972 2.372-.643 4.703-1.437 7.027-2.238a3.005 3.005 0 0 0 1.345-.984c2.315-3.093 4.711-6.14 6.793-9.386.773-1.206.842-2.887 1.107-4.374.872-4.879-.653-22.978-2.204-26.338-.22-.476-.812-.907-1.33-1.104a329.14 329.14 0 0 0-9.102-3.288c-.784-.272-1.069-.639-1.016-1.491.328-5.29.54-10.588.903-15.876.293-4.26.51-20.769.863-25.025.057-.693.345-.987 1.009-1.021C34.675.79 44.92.79 60.334.043c1.223-.06 1.655-.187 2.046.892.28.772.746 1.478 1.293 2.527.688-1.253 1.27-2.188 1.722-3.18z" mask="url(#d)"/>
            </g>
        </g>
    </g>
</svg>
