<svg xmlns="http://www.w3.org/2000/svg" xmlns:xlink="http://www.w3.org/1999/xlink" width="1083" height="530" viewBox="0 0 1083 530">
    <defs>
        <path id="a" d="M0 0h1124v532H0z"/>
    </defs>
    <g fill="none" fill-rule="evenodd" transform="translate(-21 -2)">
        <mask id="b" fill="#fff">
            <use xlink:href="#a"/>
        </mask>
        <path fill="#FFC8BA" d="M-29.628 89c83.132 2.074 135.53 4.158 157.192 6.25l68.146 5.257 51.757 6.505 248.695 38.436 10.23 2.616 6.608 3.908-3.383 33.702-16.307 12.08-4.724 31.048 13.973 15.843-6.397 37.925-18.617 16.19-2.781 23.294 13.822 15.592-5.695 43.176-23.846 20.636v31.45l15.719 13.237L466.497 494 160.8 462.09l-94.118-12.873L-66 425.127l4.582-47.997 13.494-7.47 3.04-39-10.051-8.606 2.976-43.275 14.5-7.404 1.549-40.684-12.014-5.533 6.135-47.92 16.4-10.36v-30.877l-10.521-8.908L-29.628 89z" mask="url(#b)" transform="matrix(0 -1 -1 0 515 515)"/>
        <path fill="#B2CEC9" d="M648.372 101c83.132 2.074 135.53 4.158 157.192 6.25l68.146 5.257 51.757 6.505 248.695 38.436 10.23 2.616 6.608 3.908-3.383 33.702-16.307 12.08-4.724 31.048 13.973 15.843-6.397 37.925-18.617 16.19-2.781 23.294 13.822 15.592-5.695 43.176-23.846 20.636v31.45l15.719 13.237-8.267 47.855L838.8 474.09l-94.118-12.873L612 437.127l4.582-47.997 13.494-7.47 3.04-39-10.051-8.606 2.976-43.275 14.5-7.404 1.549-40.684-12.014-5.533 6.135-47.92 16.4-10.36v-30.877l-10.521-8.908L648.372 101z" mask="url(#b)" transform="rotate(-90 901.5 303.5)"/>
        <path fill="#FFDFA5" d="M330.231 179c75.953 1.895 123.826 3.799 143.618 5.71l62.26 4.803 47.288 5.943 227.22 35.114 9.346 2.39 6.037 3.57-3.091 30.79-14.898 11.036-4.317 28.364 12.766 14.474-5.844 34.648-17.009 14.79-2.541 21.282 12.628 14.244-5.203 39.445-21.787 18.853v28.731l14.362 12.094L783.512 549l-279.297-29.153-85.99-11.76L297 486.079l4.186-43.85 12.33-6.823 2.776-35.63-9.183-7.862 2.72-39.536 13.247-6.764 1.415-37.168-10.976-5.055 5.605-43.778 14.984-9.465V221.94l-9.613-8.138 5.74-34.801z" mask="url(#b)" transform="rotate(-90 561.5 364)"/>
    </g>
</svg>
