<svg xmlns="http://www.w3.org/2000/svg" width="123" height="135" viewBox="0 0 123 135">
    <path fill="#FFC8BA" fill-rule="evenodd" d="M.107 36.42c7.83 12.81 12.886 20.814 15.169 24.011l6.975 10.18 5.69 7.503 42.573 54.367 1.333 1.363 1.209.68 4.975-3.578.42-3.642 4.438-3.547 3.744.751 5.364-4.43.856-4.376 3.399-2.542 3.69.751 6.25-4.796 1.081-5.595 4.927-2.845 3.493 1.26 6.752-5.62-46.695-63.87-10.513-13.55L49.487.329 42.38 5.387l.048 2.786-5.836 4.003-2.256-.793-6.511 4.38.149 2.936-6.235 3.923-1.95-1.378-6.955 5.293-.142 3.502-4.838 2.793-2.345-.84L.107 36.42z"/>
</svg>
