<svg xmlns="http://www.w3.org/2000/svg" xmlns:xlink="http://www.w3.org/1999/xlink" width="262" height="390" viewBox="0 0 262 390">
    <defs>
        <path id="a" d="M0 0h262v389H0z"/>
    </defs>
    <g fill="none" fill-rule="evenodd" transform="translate(0 .353)">
        <mask id="b" fill="#fff">
            <use xlink:href="#a"/>
        </mask>
        <path fill="#F8EBE6" d="M-45.9 45.622c47.25 2.991 75.71 4.963 85.379 5.914l30.415 2.39 23.1 2.956 233.491 31.604 4.566 1.189L334 91.451l-1.507 29.849-7.278 5.491-3.778 25.98 6.236 7.202-3.985 33.146-8.31 7.359-2.91 27.45 6.17 7.087-4.074 33.486-10.643 9.381-1.749 31.842 7.016 6.017-3.746 25.881-309.137-35.115-49.677-6.577L-72 294.75l2.101-30.938 6.023-3.396 3.165-30.583-4.486-3.912 2.86-33.533 6.472-3.365 2.36-35.354-5.361-2.515 3.868-37.689 7.32-4.71 1.113-21.946-3.485-8.314 4.15-32.873z" mask="url(#b)" transform="rotate(-98 131 193.622)"/>
    </g>
</svg>
