<svg xmlns="http://www.w3.org/2000/svg" width="25" height="21" viewBox="0 0 25 21">
    <path fill="#1B0702" fill-rule="evenodd" d="M7.738 20.353c9.287 0 14.366-7.694 14.366-14.366 0-.218-.005-.436-.015-.652a10.272 10.272 0 0 0 2.52-2.614c-.906.401-1.88.672-2.9.794a5.065 5.065 0 0 0 2.22-2.793c-.976.579-2.056 1-3.206 1.226a5.05 5.05 0 0 0-8.604 4.605A14.334 14.334 0 0 1 1.712 1.277a5.031 5.031 0 0 0-.684 2.538c0 1.752.891 3.298 2.247 4.203a5.012 5.012 0 0 1-2.287-.632l-.001.064a5.051 5.051 0 0 0 4.05 4.95 5.063 5.063 0 0 1-2.28.087 5.055 5.055 0 0 0 4.717 3.507 10.131 10.131 0 0 1-6.27 2.16c-.408 0-.81-.022-1.205-.07a14.294 14.294 0 0 0 7.74 2.269"/>
</svg>
