<?xml version="1.0" encoding="utf-8"?>
<!-- Generator: Adobe Illustrator 16.0.0, SVG Export Plug-In . SVG Version: 6.00 Build 0)  -->
<!DOCTYPE svg PUBLIC "-//W3C//DTD SVG 1.1//EN" "http://www.w3.org/Graphics/SVG/1.1/DTD/svg11.dtd">
<svg version="1.1" id="Layer_1" xmlns="http://www.w3.org/2000/svg" xmlns:xlink="http://www.w3.org/1999/xlink" x="0px" y="0px"
	 width="30px" height="270px" viewBox="0 0 30 270" enable-background="new 0 0 30 270" xml:space="preserve">
<g>
	<path fill="none" d="M-3-3h36v36H-3V-3z"/>
	<path fill="#FFFFFF" d="M14.985,0C6.705,0,0,6.705,0,15s6.705,15,14.985,15C23.266,30,30,23.295,30,15S23.279,0,14.985,0z M15,27
		C8.37,27,3,21.63,3,15S8.37,3,15,3s12,5.37,12,12S21.63,27,15,27z M16.5,11.91l1.59,1.59l1.59-1.59l1.59,1.59l1.59-1.59l-3.18-3.18
		L16.5,11.91z M10.32,11.91l1.59,1.59l1.59-1.59l-3.18-3.18l-3.18,3.18l1.59,1.59L10.32,11.91z M15,23.25
		c3.495,0,6.465-2.19,7.665-5.25H7.335C8.535,21.06,11.505,23.25,15,23.25z"/>
	<g opacity="0.5">
		<path fill="none" d="M-3,237h36v36H-3V237z"/>
		<path fill="#FFFFFF" d="M15,257.25c-3.495,0-6.465,2.189-7.665,5.25h15.33C21.465,259.439,18.495,257.25,15,257.25z M8.73,255
			l1.59-1.59l1.59,1.59l1.59-1.59l-1.59-1.59l1.59-1.59l-1.59-1.59l-1.59,1.59l-1.59-1.59l-1.59,1.59l1.59,1.59l-1.59,1.59L8.73,255
			z M14.985,240C6.705,240,0,246.705,0,255s6.705,15,14.985,15C23.266,270,30,263.295,30,255S23.279,240,14.985,240z M15,267
			c-6.63,0-12-5.37-12-12s5.37-12,12-12s12,5.37,12,12S21.63,267,15,267z M21.27,248.641l-1.59,1.59l-1.59-1.59l-1.59,1.59
			l1.59,1.59l-1.59,1.59l1.59,1.59l1.59-1.59l1.59,1.59l1.59-1.59l-1.59-1.59l1.59-1.59L21.27,248.641z"/>
	</g>
	<g opacity="0.5">
		<path fill="none" d="M-3,77h36v36H-3V77z"/>
		<path fill="#FFFFFF" d="M20.25,93.5c-1.242,0-2.25-1.007-2.25-2.25S19.008,89,20.25,89s2.25,1.007,2.25,2.25
			S21.492,93.5,20.25,93.5z M9.75,93.5c-1.243,0-2.25-1.007-2.25-2.25S8.507,89,9.75,89S12,90.007,12,91.25S10.993,93.5,9.75,93.5z
			 M15,101c2.221,0,4.125-1.215,5.175-3h2.505c-1.653,4.242-6.432,6.339-10.674,4.686C9.857,101.848,8.158,100.148,7.32,98h2.505
			C10.875,99.785,12.78,101,15,101z M14.985,80C23.279,80,30,86.72,30,95s-6.721,15-15.015,15C6.705,110,0,103.28,0,95
			S6.705,80,14.985,80z M15,107c6.63,0,12-5.37,12-12s-5.37-12-12-12S3,88.37,3,95S8.37,107,15,107z"/>
	</g>
	<g opacity="0.5">
		<path fill="none" d="M-3,157h36v36H-3V157z"/>
		<path fill="#FFFFFF" d="M20.25,173.5c-1.242,0-2.25-1.008-2.25-2.25s1.008-2.25,2.25-2.25s2.25,1.008,2.25,2.25
			S21.492,173.5,20.25,173.5z M9.75,173.5c-1.243,0-2.25-1.008-2.25-2.25S8.507,169,9.75,169s2.25,1.008,2.25,2.25
			S10.993,173.5,9.75,173.5z M15,178c3.397,0,6.446,2.084,7.68,5.25h-2.505c-1.05-1.785-2.954-3-5.175-3c-2.22,0-4.14,1.215-5.175,3
			H7.32C8.554,180.084,11.603,178,15,178z M14.985,160C23.279,160,30,166.721,30,175s-6.721,15-15.015,15C6.705,190,0,183.279,0,175
			S6.705,160,14.985,160z M15,187c6.63,0,12-5.37,12-12s-5.37-12-12-12s-12,5.37-12,12S8.37,187,15,187z"/>
	</g>
</g>
</svg>
