<?xml version="1.0" encoding="utf-8"?>
<!-- Generator: Adobe Illustrator 16.0.0, SVG Export Plug-In . SVG Version: 6.00 Build 0)  -->
<!DOCTYPE svg PUBLIC "-//W3C//DTD SVG 1.1//EN" "http://www.w3.org/Graphics/SVG/1.1/DTD/svg11.dtd">
<svg version="1.1" id="Layer_1" xmlns="http://www.w3.org/2000/svg" xmlns:xlink="http://www.w3.org/1999/xlink" x="0px" y="0px"
	 width="308px" height="260px" viewBox="0 0 308 260" enable-background="new 0 0 308 260" xml:space="preserve">
<g>
	<path fill="#009F9F" d="M4,0h300c2.209,0,4,1.791,4,4v252c0,2.209-1.791,4-4,4H4c-2.209,0-4-1.791-4-4V4C0,1.791,1.791,0,4,0z"/>
	<g opacity="0.5">
		<path fill="none" d="M136,112h36v36h-36V112z"/>
		<path fill="#FFFFFF" d="M159.25,128.5c-1.242,0-2.25-1.007-2.25-2.25s1.008-2.25,2.25-2.25s2.25,1.007,2.25,2.25
			S160.492,128.5,159.25,128.5z M148.75,128.5c-1.243,0-2.25-1.007-2.25-2.25s1.007-2.25,2.25-2.25s2.25,1.007,2.25,2.25
			S149.993,128.5,148.75,128.5z M154,136c2.221,0,4.125-1.215,5.175-3h2.505c-1.653,4.242-6.432,6.34-10.674,4.686
			c-2.148-0.838-3.848-2.537-4.686-4.686h2.505C149.875,134.785,151.78,136,154,136L154,136z M153.985,115
			c8.294,0,15.015,6.72,15.015,15c0,8.279-6.721,15-15.015,15c-8.28,0-14.985-6.721-14.985-15C139,121.72,145.705,115,153.985,115z
			 M154,142c6.63,0,12-5.37,12-12s-5.37-12-12-12s-12,5.37-12,12S147.37,142,154,142z"/>
	</g>
</g>
</svg>
