<svg xmlns="http://www.w3.org/2000/svg" xmlns:xlink="http://www.w3.org/1999/xlink" width="931" height="546" viewBox="0 0 931 546">
    <defs>
        <path id="a" d="M.817.118H7.5v14.24H.817z"/>
        <path id="c" d="M0 49.154h155V0H0z"/>
        <path id="e" d="M0 49.154h155V0H0z"/>
        <path id="g" d="M0 49.154h155V0H0z"/>
    </defs>
    <g fill="none" fill-rule="evenodd">
        <path fill="#FFF" d="M0 157.866L195 158l195-3 432.387-7L931 157.934l-3.239 383.55L833 546l-443-8-195 1-189.051 2.415z"/>
        <path fill="#F8EBE6" d="M195 158l195-3-2 332 2 51-195 1z"/>
        <g fill="#1B0702" font-size="20">
            <text font-family="OpenSans-Regular, Open Sans" opacity=".4" transform="translate(777 188)">
                <tspan x="43.461" y="213">N/A</tspan>
            </text>
            <text font-family="OpenSans-Regular, Open Sans" transform="translate(777 188)">
                <tspan x="0" y="21">Brown paper </tspan> <tspan x="30.444" y="45">tickets</tspan>
            </text>
            <text font-family="OpenSans-Regular, Open Sans" opacity=".4" transform="translate(777 188)">
                <tspan x="30.25" y="109">£83.25</tspan>
            </text>
            <text font-family="OpenSans-SemiBold, Open Sans" font-weight="500" transform="translate(777 188)">
                <tspan x="24.595" y="303">£</tspan> <tspan x="36.011" y="303" font-size="24">83.25</tspan>
            </text>
        </g>
        <g fill="#1B0702" font-size="20">
            <text font-family="OpenSans-Regular, Open Sans" opacity=".4" transform="translate(607 188)">
                <tspan x="16.069" y="213">€20.25</tspan>
            </text>
            <text font-family="OpenSans-SemiBold, Open Sans" font-weight="500" transform="translate(607 188)">
                <tspan x="11.595" y="303">£</tspan> <tspan x="23.011" y="303" font-size="24">91.25</tspan>
            </text>
            <text font-family="OpenSans-Regular, Open Sans" transform="translate(607 188)">
                <tspan x=".283" y="21">Bookitbee</tspan>
            </text>
            <text font-family="OpenSans-Regular, Open Sans" opacity=".4" transform="translate(607 188)">
                <tspan x="16.25" y="109">£68.75</tspan>
            </text>
        </g>
        <g fill="#1B0702" font-size="20">
            <text font-family="OpenSans-Regular, Open Sans" opacity=".4" transform="translate(428 188)">
                <tspan x="30.461" y="213">N/A</tspan>
            </text>
            <text font-family="OpenSans-Regular, Open Sans" transform="translate(428 188)">
                <tspan x=".771" y="21">Eventbrite</tspan>
            </text>
            <text font-family="OpenSans-Regular, Open Sans" opacity=".4" transform="translate(428 188)">
                <tspan x="17.25" y="109">£93.25</tspan>
            </text>
            <text font-family="OpenSans-SemiBold, Open Sans" font-weight="500" transform="translate(428 188)">
                <tspan x="12.095" y="302">£</tspan> <tspan x="23.511" y="302" font-size="24">93.25</tspan>
            </text>
        </g>
        <text fill="#1B0702" font-family="OpenSans-Regular, Open Sans" font-size="20" opacity=".4" transform="translate(0 148)">
            <tspan x="261.25" y="149">£19.00</tspan>
        </text>
        <text fill="#1B0702" font-family="OpenSans-Regular, Open Sans" font-size="20" opacity=".4" transform="translate(0 148)">
            <tspan x="261.25" y="253">£22.50</tspan>
        </text>
        <text fill="#3F3981" font-family="Coustard-Regular, Coustard" font-size="24" transform="translate(0 148)">
            <tspan x="246" y="348.574">£</tspan> <tspan x="259.484" y="347" font-size="28">41.50</tspan>
        </text>
        <path fill="#3F3981" fill-rule="nonzero" d="M259.647 215.415l2.853 1.528-.084.15c-1.19 2.099-3.605 3.407-6.289 3.407-4.205 0-7.377-2.96-7.377-6.875 0-3.916 3.172-6.875 7.377-6.875 2.703 0 5.097 1.29 6.24 3.381l.076.15-2.862 1.553-.084-.175c-.581-1.16-1.85-1.862-3.398-1.862-2.3 0-4.026 1.651-4.026 3.828 0 2.177 1.727 3.82 4.026 3.82 1.51 0 2.806-.694 3.453-1.862l.095-.167z"/>
        <g transform="translate(362.5 206.75)">
            <mask id="b" fill="#fff">
                <use xlink:href="#a"/>
            </mask>
            <path fill="#3F3981" fill-rule="nonzero" d="M7.5.118v3.576l-.183-.01c-1.06-.084-2.02.244-2.646.902-.6.628-.902 1.549-.902 2.723v7.049H.817V.372H3.77v1.725C4.513.823 5.747.12 7.325.12H7.5z" mask="url(#b)"/>
        </g>
        <path fill="#3F3981" fill-rule="nonzero" d="M280.817 212.378c.438-1.747 1.81-2.783 3.702-2.783 1.81 0 3.11 1.036 3.496 2.783h-7.198zm3.729-5.628c-4.08 0-7.046 2.888-7.046 6.875 0 4.047 2.985 6.875 7.251 6.875 2.501 0 4.573-1.019 5.846-2.854l.107-.158-2.627-1.501-.09.131c-.671.957-1.837 1.51-3.208 1.51-2.008 0-3.47-.992-3.935-2.66h10.28l.019-.15c.053-.376.107-.78.107-1.167 0-3.933-2.886-6.901-6.705-6.901h.001z"/>
        <g transform="translate(215 188)">
            <mask id="d" fill="#fff">
                <use xlink:href="#c"/>
            </mask>
            <path fill="#3F3981" fill-rule="nonzero" d="M118.253 33.364h3.232V20.043h-3.232v13.321zm-34.507-13.32h3.287v3.048h-3.287v6.044c0 .509.109.839.328 1.044.428.404 1.333.377 2.767.315l.19-.01v2.861l-.164.018c-.657.08-1.26.116-1.807.116-1.524 0-2.61-.312-3.341-.947-.804-.697-1.196-1.805-1.196-3.397V23.09h-2.438v-3.046h2.438V17.28l3.223-.93v3.694-.001zm41.108 13.32h3.223V14.071h-3.223v19.293zm-23.269-15.296h-5.213v15.296h-3.414V18.068h-5.24v-3.21h13.867v3.21zM28.501 33.364h3.232V20.043h-3.232v13.321zm3.625-16.878c0 1.062-.923 1.967-2.009 1.967-1.086 0-2.008-.904-2.008-1.967 0-1.082.902-1.967 2.008-1.967 1.105 0 2.009.884 2.009 1.967m89.751 0c0 1.062-.92 1.967-2.007 1.967-1.087 0-2.009-.904-2.009-1.967 0-1.082.904-1.967 2.009-1.967 1.104 0 2.007.884 2.007 1.967m16.006 14.134c-2.247 0-3.945-1.68-3.945-3.916 0-2.235 1.698-3.925 3.945-3.925 2.254 0 3.953 1.69 3.953 3.925s-1.699 3.916-3.953 3.916m0-10.916c-4.027 0-7.177 3.075-7.177 7s3.15 7 7.176 7c4.027 0 7.175-3.075 7.175-7s-3.148-7-7.175-7m-30.265 10.97c-2.318 0-3.999-1.672-3.999-3.97 0-2.299 1.68-3.97 4-3.97 2.318 0 4.008 1.671 4.008 3.97 0 2.298-1.69 3.97-4.009 3.97zm4.009-10.63v1.51c-1.096-1.216-2.622-1.85-4.456-1.85-3.798 0-6.775 3.075-6.775 7 0 3.853 3.041 7 6.775 7 1.843 0 3.369-.642 4.456-1.868v1.528h3.223v-13.32h-3.223zM12.46 14.858h13.868v3.21h-5.213v15.296H17.7V18.068h-5.24v-3.21zm43.42 11.713l6.2 6.792h-3.908l-5.16-5.693v5.694h-3.23V14.857h3.23V25.48l4.868-5.436h3.989L55.88 26.57z" mask="url(#d)"/>
        </g>
        <g transform="translate(215 188)">
            <mask id="f" fill="#fff">
                <use xlink:href="#e"/>
            </mask>
            <path fill="#3F3981" fill-rule="nonzero" d="M13.262 49.154c-.753 0-1.415-.49-1.622-1.199L.066 8.43a1.616 1.616 0 0 1 .146-1.26 1.674 1.674 0 0 1 1.012-.788l6.23-1.747a1.697 1.697 0 0 1 1.978.87c.767 1.553 2.565 2.337 4.256 1.858 1.692-.473 2.79-2.07 2.602-3.783a1.647 1.647 0 0 1 1.206-1.765l6.23-1.75c.432-.12.889-.071 1.284.143.394.214.68.565.806.991l2.655 9.07a.76.76 0 0 1-.539.918.78.78 0 0 1-.954-.498l-2.656-9.071a.138.138 0 0 0-.17-.092l-6.229 1.75c-.06.016-.098.075-.09.141.27 2.448-1.3 4.73-3.717 5.405-2.416.684-4.984-.437-6.08-2.654a.135.135 0 0 0-.155-.073l-6.229 1.75c-.062.018-.111.104-.094.165l11.574 39.527c.01.034.034.063.065.08a.14.14 0 0 0 .105.012l6.228-1.75a.13.13 0 0 0 .092-.14c-.273-2.45 1.299-4.736 3.72-5.41 2.417-.683 4.984.44 6.077 2.658.03.059.091.093.155.073l6.23-1.75c.06-.017.11-.104.092-.165l-1.61-5.498a.76.76 0 0 1 .543-.904.78.78 0 0 1 .95.486l1.61 5.498c.125.423.074.87-.147 1.257-.216.384-.58.668-1.011.788L30 44.521a1.694 1.694 0 0 1-1.978-.874c-.766-1.551-2.563-2.336-4.253-1.857-1.695.471-2.795 2.07-2.606 3.784a1.647 1.647 0 0 1-1.205 1.768l-6.228 1.747a1.75 1.75 0 0 1-.47.065" mask="url(#f)"/>
        </g>
        <text font-family="OpenSans-Regular, Open Sans" font-size="16" transform="translate(0 148)">
            <tspan x="32" y="139" fill="#1B0702">Service fees </tspan> <tspan x="32" y="159" fill="#767268">(excl. VAT)</tspan>
        </text>
        <text fill="#1B0702" font-family="OpenSans-Regular, Open Sans" font-size="16" transform="translate(0 148)">
            <tspan x="32" y="347">Total cost</tspan>
        </text>
        <text fill="#1B0702" font-family="OpenSans-Regular, Open Sans" font-size="16" transform="translate(0 148)">
            <tspan x="32" y="243">Payment </tspan> <tspan x="32" y="263">processing fees</tspan>
        </text>
        <path fill="#FBF7F4" d="M.304 1.32C134.494-.094 282.678-.372 444.854.486 607.032 1.344 769.08 3.263 931 6.243l-.304 151.788-108.964-9.847-431.86 6.893-194.936 2.954L0 160 .304 1.32z"/>
    </g>
</svg>
