<?xml version="1.0" encoding="iso-8859-1"?>
<!-- Generator: Adobe Illustrator 19.0.0, SVG Export Plug-In . SVG Version: 6.00 Build 0)  -->
<svg version="1.1" id="Capa_1" xmlns="http://www.w3.org/2000/svg" xmlns:xlink="http://www.w3.org/1999/xlink" x="0px" y="0px"
	 viewBox="0 0 512 512" style="enable-background:new 0 0 512 512;" xml:space="preserve">
<path style="fill:#FFAE39;" d="M442,256c0,30.33,24.67,55,55,55c8.28,0,15,6.72,15,15v80c0,8.28-6.72,15-15,15H15
	c-8.28,0-15-6.72-15-15v-80c0-8.28,6.72-15,15-15c30.33,0,55-24.67,55-55s-24.67-55-55-55c-8.28,0-15-6.72-15-15v-80
	c0-8.28,6.72-15,15-15h482c8.28,0,15,6.72,15,15v80c0,8.28-6.72,15-15,15C466.67,201,442,225.67,442,256z"/>
<g>
	<rect x="351" y="91" style="fill:#FC9D26;" width="30" height="330"/>
	<path style="fill:#FC9D26;" d="M497,311c-30.33,0-55-24.67-55-55H70c0,30.33-24.67,55-55,55c-8.28,0-15,6.72-15,15v80
		c0,8.28,6.72,15,15,15h482c8.28,0,15-6.72,15-15v-80C512,317.72,505.28,311,497,311z"/>
</g>
<rect x="351" y="256" style="fill:#F88D13;" width="30" height="165"/>
<path style="fill:#0B4EB1;" d="M226,336c-8.284,0-15-6.716-15-15v-40c0-8.284,6.716-15,15-15s15,6.716,15,15v40
	C241,329.284,234.284,336,226,336z"/>
<path style="fill:#F8EB76;" d="M276,266.872V191c0-8.284-6.716-15-15-15h-70c-8.284,0-15,6.716-15,15v75.872
	c-5.822,2.061-10,7.6-10,14.128c0,8.284,6.716,15,15,15h10h70h10c8.284,0,15-6.716,15-15C286,274.472,281.822,268.933,276,266.872z"
	/>
<path style="fill:#FAD557;" d="M176,256v10.872c-5.822,2.061-10,7.6-10,14.128c0,8.284,6.716,15,15,15h10h70h10
	c8.284,0,15-6.716,15-15c0-6.528-4.178-12.067-10-14.128V256H176z"/>
<g>
</g>
<g>
</g>
<g>
</g>
<g>
</g>
<g>
</g>
<g>
</g>
<g>
</g>
<g>
</g>
<g>
</g>
<g>
</g>
<g>
</g>
<g>
</g>
<g>
</g>
<g>
</g>
<g>
</g>
</svg>
