<svg xmlns="http://www.w3.org/2000/svg" width="123" height="135" viewBox="0 0 123 135">
    <path fill="#B2CEC9" fill-rule="evenodd" d="M.374 36.261c7.83 12.81 12.885 20.813 15.169 24.011l6.975 10.179 5.69 7.503 42.573 54.368 1.333 1.362 1.208.68 4.975-3.578.421-3.642 4.438-3.547 3.743.752 5.365-4.43.856-4.376 3.398-2.542 3.69.75 6.251-4.795 1.08-5.595 4.928-2.845 3.493 1.26 6.751-5.62-46.695-63.87-10.512-13.55L49.753.17l-7.106 5.058.048 2.785-5.836 4.003-2.256-.793-6.511 4.38.148 2.937-6.234 3.922-1.951-1.378-6.954 5.294-.143 3.501-4.837 2.793-2.346-.839-5.4 4.428z"/>
</svg>
