<svg xmlns="http://www.w3.org/2000/svg" xmlns:xlink="http://www.w3.org/1999/xlink" width="702" height="574" viewBox="0 0 702 574">
    <defs>
        <path id="a" d="M0 0h618v382H0z"/>
        <rect id="d" width="548" height="528" rx="4"/>
        <filter id="c" width="104.6%" height="105.7%" x="-2.3%" y="-1.4%" filterUnits="objectBoundingBox">
            <feMorphology in="SourceAlpha" radius="2.5" result="shadowSpreadOuter1"/>
            <feOffset dy="10" in="shadowSpreadOuter1" result="shadowOffsetOuter1"/>
            <feGaussianBlur in="shadowOffsetOuter1" result="shadowBlurOuter1" stdDeviation="5"/>
            <feColorMatrix in="shadowBlurOuter1" values="0 0 0 0 0.464305933 0 0 0 0 0.447667818 0 0 0 0 0.407736342 0 0 0 0.2 0"/>
        </filter>
        <rect id="f" width="232" height="168" rx="4"/>
        <filter id="e" width="111.2%" height="118.5%" x="-5.6%" y="-4.8%" filterUnits="objectBoundingBox">
            <feMorphology in="SourceAlpha" radius="2" result="shadowSpreadOuter1"/>
            <feOffset dy="10" in="shadowSpreadOuter1" result="shadowOffsetOuter1"/>
            <feGaussianBlur in="shadowOffsetOuter1" result="shadowBlurOuter1" stdDeviation="5"/>
            <feComposite in="shadowBlurOuter1" in2="SourceAlpha" operator="out" result="shadowBlurOuter1"/>
            <feColorMatrix in="shadowBlurOuter1" values="0 0 0 0 0.464305933 0 0 0 0 0.447667818 0 0 0 0 0.407736342 0 0 0 0.2 0"/>
        </filter>
        <path id="g" d="M0 0h23v26H0z"/>
    </defs>
    <g fill="none" fill-rule="evenodd">
        <g>
            <mask id="b" fill="#fff">
                <use xlink:href="#a"/>
            </mask>
            <path fill="#FBF7F4" d="M16.062 153.302c-30.82 54.075-27.83 124.829 76.38 140.526 18.829 80.058 72.84 129.11 136.655 127.542 42.543-1.046 84.818-20.013 126.823-56.903 133.05 2.616 195.969-49.382 188.76-155.994-7.21-106.612-65.214-149.126-174.013-127.542C312.99 29.915 262.195 4.406 218.283 4.406c-43.913 0-68.82 17.987-74.718 53.96C79.111 85.607 36.61 117.253 16.062 153.302z" mask="url(#b)" transform="scale(1 -1) rotate(-6 -3790.378 0)"/>
        </g>
        <g transform="translate(70 31)">
            <use fill="#000" filter="url(#c)" xlink:href="#d"/>
            <use fill="#B2CEC9" xlink:href="#d"/>
            <path fill="#FFDFA5" d="M0 0h548v149H0z"/>
            <rect width="452" height="402" x="48" y="96" fill="#FFF" rx="2"/>
            <path fill="#F8EBE6" d="M64 156h420v2H64z"/>
            <rect width="272" height="217" x="64" y="226" fill="#F8EBE6" rx="2"/>
            <g transform="translate(352 178)">
                <rect width="132" height="36" fill="#3F3981" rx="2"/>
                <text fill="#FFF" font-family="OpenSans-Regular, Open Sans" font-size="12">
                    <tspan x="36.479" y="20">Buy tickets</tspan>
                </text>
            </g>
            <g fill="#B2CEC9" transform="translate(154 138)">
                <rect width="98" height="8" x="12" rx="4"/>
                <rect width="98" height="8" x="142" rx="4"/>
                <rect width="8" height="8" rx="4"/>
                <rect width="8" height="8" x="130" rx="4"/>
            </g>
            <text fill="#1B0702" font-family="Coustard-Regular, Coustard" font-size="16">
                <tspan x="216.344" y="124">Ashtanga Yoga</tspan>
            </text>
            <rect width="72" height="8" x="64" y="178" fill="#B2CEC9" rx="4"/>
            <rect width="76" height="8" x="352" y="226" fill="#B2CEC9" rx="4"/>
            <circle cx="362" cy="250" r="10" fill="#B2CEC9"/>
            <circle cx="390" cy="250" r="10" fill="#B2CEC9"/>
            <g transform="translate(190 320)">
                <path fill="#F4927A" d="M10 29c5.523 0 10-13.477 10-19S15.523 0 10 0 0 4.477 0 10s4.477 19 10 19z" opacity=".4"/>
                <circle cx="10" cy="11" r="6" fill="#F8EBE6"/>
            </g>
            <circle cx="418" cy="250" r="10" fill="#B2CEC9"/>
            <rect width="136" height="8" x="64" y="198" fill="#B2CEC9" rx="4"/>
            <rect width="272" height="8" x="64" y="455" fill="#B2CEC9" rx="4"/>
            <rect width="272" height="8" x="64" y="474.594" fill="#B2CEC9" rx="4"/>
        </g>
        <g transform="translate(414 277.594)">
            <use fill="#000" filter="url(#e)" xlink:href="#f"/>
            <use fill="#FFF" stroke="#767268" stroke-opacity=".2" xlink:href="#f"/>
        </g>
        <g transform="translate(428 293.594)">
            <text fill="#1B0702" font-family="OpenSans-SemiBold, Open Sans" font-size="12" font-weight="500">
                <tspan x="30" y="15">Your code</tspan>
            </text>
            <circle cx="12" cy="10" r="10" fill="#1B0702"/>
            <path d="M0 2h16v16H0z"/>
            <path fill="#FFF" d="M10.273 6.94L9.333 6l-4 4 4 4 .94-.94L7.22 10z"/>
            <path d="M24 2H8v16h16z"/>
            <path fill="#FFF" d="M13.727 6.94l.94-.94 4 4-4 4-.94-.94L16.78 10z"/>
            <rect width="200" height="8" x="2" y="32" fill="#1B0702" opacity=".4" rx="4"/>
            <rect width="200" height="8" x="2" y="72" fill="#1B0702" opacity=".4" rx="4"/>
            <rect width="200" height="8" x="2" y="52" fill="#1B0702" opacity=".4" rx="4"/>
            <rect width="163" height="8" x="2" y="92" fill="#1B0702" opacity=".4" rx="4"/>
            <g transform="translate(62 112)">
                <rect width="77" height="24" fill="#1B0702" rx="4"/>
                <text fill="#FFF" font-family="OpenSans-SemiBold, Open Sans" font-size="12" font-weight="500">
                    <tspan x="24" y="15.56">Copy</tspan>
                </text>
            </g>
        </g>
        <g transform="translate(679 298)">
            <mask id="h" fill="#fff">
                <use xlink:href="#g"/>
            </mask>
            <path fill="#DE8B75" d="M13.449 9.338c-.14-.01-.315-.013-.296.171.052.527-.299.6-.68.634-.394.036-.506.189-.288.547.088.146.17.287.322.373l.021.2c-.077.036-.172.054-.226.111-.394.418-.56.981-.851 1.463-.115.19-.146.533-.315.776-.192.275-.256.55.035.808l-.173.604c-.144.054-.223.149-.199.31.037.35.18.737-.303.916-.353.165-.189.464-.19.72l.012.379c-.19.42-.117.925-.477 1.304-.17.18.001.397.23.328.339-.101.69-.14.988-.43.353-.345.514-1.002 1.214-.893.07.01.133-.06.11-.136-.089-.306.18-.413.326-.578.355-.4.774-.737 1.147-1.12.275-.282.065-.906.673-.905-.004-.033-.013-.066-.013-.099.006-.44.154-.87.462-1.14.834-.735.891-1.838 1.393-2.724.06-.105.029-.234-.106-.3l-.027-.22c.358-.428.279-.961.32-1.456.031-.357-.003-.735-.36-.97l-.218-.393c-.348-.319-1.02-.213-1.219.195-.077.158-.187.319-.342.358-.619.155-.803.648-.969 1.166h-.001zm-7.953-5.7c.023-.168-.007-.349.122-.49.292-.077.482-.233.632-.521.196-.374.555-.64.805-.994.174-.247.531-.441.836-.499.316-.06.462-.161.56-.454.136-.41.539-.567.892-.666.325-.091.453.282.62.507.04.055.071.116.113.169.302.384.437.919.998 1.072.122.033.148.177.122.303-.03.145-.143.082-.235.103-.312.072-.729.138-.9.281-.56.466-.704 1.281-1.28 1.775-.028.024-.023.098-.018.148.033.303-.123.488-.392.57-.808.248-.961 1.012-1.219 1.64-.113.276-.18.527-.443.664-.471.245-.7.668-.939 1.113a14.358 14.358 0 0 1-1.026 1.665c-.323.445-.674.856-.675 1.442-.425.098-.125.702-.556.795.261.612-.286.92-.493 1.364-.215.463-.693.888-.328 1.49.106.175.04.371-.128.432-.474.17-.249.402-.093.645.063.098.163.208.158.309-.04.79.488 1.458.472 2.248-.004.2.049.394-.062.579-.124.206-.026.392.127.486.61.375 1.048.92 1.518 1.438.064.07.167.152.25.151.468-.003.912.178 1.406.062.34-.08.667-.273 1.025-.24.337.03.416-.182.446-.422.098-.79-.155-1.518-.431-2.24-.01-.094-.018-.189-.027-.284.15-.968.49-1.886.763-2.82.018-.064.006-.135.014-.202.062-.505.118-1.011.19-1.515.098-.702.704-1.16.848-1.88.136-.676.95-1.076.997-1.858.61-.316.542-1.073.988-1.515.162-.16.37-.388.291-.755-.064-.303.459-.33.555-.596.318-.874 1.326-.9 1.835-1.53.584.118 1.078-.353 1.66-.254a.558.558 0 0 0 .074.032c.123.416.457.276.737.28.103.06.148.209.3.196.326.248.682.424 1.1.444l.097.106c.071.215.179.385.443.365l.082.025c.136.294.294.57.55.783.122.102.215.23.134.4-.15.311-.007.558.175.79a.774.774 0 0 1 .175.513c-.003.304-.128.619.145.898.12.124-.093.197-.146.294-.217.396-.661.716-.481 1.267.063.195-.38.936-.548.894-.486-.121-.484.25-.38.45.342.65-.067 1.133-.3 1.645-.105.23-.024.552-.255.692-.826.503-1.298 1.255-1.612 2.136-.065.185-.234.281-.373.405-.447.395-.83.854-1.324 1.207-.43.308-.785.711-1.208 1.04-.692.536-1.62.719-2.118 1.566-.387.66-.333 1.522.292 1.952.333.229.627.569 1.112.355.07-.03.196.032.282.077.826.442 1.653.546 2.517.086.32-.17.629-.344 1.018-.41.607-.104 1.182-.364 1.356-1.07a.493.493 0 0 0 .083-.016c.1-.006.262.024.292-.025.16-.264.49-.29.658-.448.264-.247.721-.033.846-.42.105-.324.34-.49.616-.632.156-.08.278-.186.32-.369.106-.455.48-.755.688-1.156.12-.23.4-.442.728-.2.128.096.244.118.325-.061.058-.13.12-.1.23-.032.516.317.804.726.873 1.365.041.387-.32.407-.357.66-.103.709-.572 1.102-1.128 1.505-1.446 1.049-2.96 1.956-4.632 2.595-.233.089-.463.205-.68.31-.47.23-.93.043-1.39.098-.744.087-1.505.08-2.235-.104-1.179-.297-2.235-.85-3.19-1.61-.3-.237-.67-.387-.798-.785-.108-.339-.31-.322-.596-.223-.56.194-1.135.203-1.728.137-.885-.097-1.55-.765-2.425-.868-.15-.017-.272-.153-.403-.194-.492-.156-.616-.715-1.047-.912-.955-.435-1.36-1.235-1.44-2.212-.021-.258-.132-.427-.217-.639-.241-.598-.958-1.062-.553-1.858.047-.094-.063-.181-.141-.249L0 16.147c.136-.09.09-.236.115-.363.117-.602-.061-1.234.276-1.824.192-.335.316-.749.215-1.17l.012-.202c.187-.347.467-.646.51-1.064.063-.6.274-1.13.643-1.622.15-.2.362-.462.249-.782v-.297c.24-.044.48-.085.377-.429l.026-.283c.207-.082.273-.33.493-.405.123-.042.134-.138.001-.208.214-.655.659-1.195.903-1.841.106-.281.497-.436.56-.795.296-.138.674-.18.708-.616l.116-.189c.178-.083.465-.09.292-.418z" mask="url(#h)"/>
        </g>
    </g>
</svg>
